<svg width="20" height="20" viewBox="0 0 20 20" fill="none" xmlns="http://www.w3.org/2000/svg">
<g id="Group 625873">
<g id="Vector">
<path d="M16.7878 17.3556L14.2267 14.7939L14.5098 14.5111C15.7156 13.3066 16.3796 11.7048 16.3796 10.0006V9.60059H19.9992V10.0006C19.9992 12.6724 18.9591 15.1839 17.0708 17.0728L16.7878 17.3556ZM15.3506 14.7865L16.7818 16.2181C18.2539 14.6151 19.0986 12.5754 19.1909 10.4005H17.1686C17.0795 12.0354 16.444 13.568 15.3506 14.7865ZM7.18984 4.2601L5.80554 0.917899L6.17314 0.763999C7.38394 0.257 8.67054 0 9.99744 0H10.3974V3.6208L9.99774 3.621C9.16089 3.62068 8.33224 3.78581 7.55944 4.1069L7.18984 4.2601ZM6.85284 1.3562L7.62684 3.2247C8.26187 3.00156 8.92528 2.86942 9.59734 2.8322V0.808399C8.65244 0.848899 7.73254 1.0323 6.85284 1.3562Z" fill="#02AB6C"/>
<path d="M16.7878 17.3556L14.2267 14.7939L14.5098 14.5111C15.7156 13.3066 16.3796 11.7048 16.3796 10.0006V9.60059H19.9992V10.0006C19.9992 12.6724 18.9591 15.1839 17.0708 17.0728L16.7878 17.3556ZM15.3506 14.7865L16.7818 16.2181C18.2539 14.6151 19.0986 12.5754 19.1909 10.4005H17.1686C17.0795 12.0354 16.444 13.568 15.3506 14.7865ZM7.18984 4.2601L5.80554 0.917899L6.17314 0.763999C7.38394 0.257 8.67054 0 9.99744 0H10.3974V3.6208L9.99774 3.621C9.16089 3.62068 8.33224 3.78581 7.55944 4.1069L7.18984 4.2601ZM6.85284 1.3562L7.62684 3.2247C8.26187 3.00156 8.92528 2.86942 9.59734 2.8322V0.808399C8.65244 0.848899 7.73254 1.0323 6.85284 1.3562Z" fill="#02AB6C"/>
</g>
<g id="Vector_2">
<path d="M16.0578 8.0001H19.7956C18.9979 4.08751 15.9103 0.99781 11.9969 0.201111V3.94251C13.9097 4.57491 15.4246 6.0881 16.0578 8.0001Z" fill="#02AB6C"/>
<path d="M16.0578 8.0001H19.7956C18.9979 4.08751 15.9103 0.99781 11.9969 0.201111V3.94251C13.9097 4.57491 15.4246 6.0881 16.0578 8.0001Z" fill="#02AB6C"/>
</g>
<path id="Vector_3" d="M12.869 15.6985C11.9899 16.1428 11.013 16.3795 9.99948 16.3795C6.48168 16.3795 3.61979 13.5174 3.61979 9.99943C3.61979 8.10453 4.45158 6.35944 5.83528 5.17004L4.40358 1.71344C1.67929 3.54464 0.000488281 6.62153 0.000488281 10.0016C0.000488281 15.5148 4.48508 19.9999 9.99768 19.9999C11.9909 19.9999 13.8943 19.4218 15.5166 18.3466L12.869 15.6985Z" fill="#02AB6C"/>
</g>
</svg>
